<svg version="1.2" baseProfile="tiny" viewBox="0 0 66.791 70.403" xmlns:xlink="http://www.w3.org/1999/xlink" xmlns="http://www.w3.org/2000/svg">
<path style="fill:#ffffff;" d="M63.4601,5.6189L63.4601,4.5987L62.5398,4.5987L62.5398,4.5987L62.5398,0.7498L60.6689,0.7498L60.6689,1.6333C60.164,1.5158,59.5863,1.4764,58.9698,1.4764L50.7799,1.4764C48.8269,1.4764,47.2439,6.0047,47.2439,7.9577L47.2439,14.9107L7.5861,14.9107L7.5861,14.936L7.5861,14.936L2.313,17.1903C2.313,17.1903,0.692,17.7387,0.7507,19.0363C0.8102,20.3331,0.7547,42.1953,0.7507,43.785C0.7467,45.3761,2.313,45.631,2.313,45.631L7.5861,47.8853L7.5861,47.9099L13.3021,47.9099L13.3021,51.9757L10.5323,51.9757C9.9492,51.9757,9.471,52.4531,9.471,53.0367L9.471,54.0378L6.637,54.0378L6.637,54.0378L6.637,67.5897L9.4723,67.5897L9.4723,68.5922C9.4723,69.1752,9.9492,69.6532,10.5329,69.6532L44.9457,69.6532C45.5288,69.6532,46.007,69.1752,46.007,68.5922L46.007,53.036C46.007,52.4523,45.5301,51.975,44.9457,51.975L43.1777,51.975L43.1777,47.9099L47.2433,47.9099L47.2433,54.8629C47.2433,56.8159,48.8262,61.3442,50.7792,61.3442L58.9691,61.3442C59.5849,61.3442,60.1633,61.2752,60.6683,61.1168L60.6683,61.9342L62.5391,61.9342L62.5391,58.5162L63.4601,58.5162L63.4601,57.201C64.5067,56.9581,66.0403,56.2802,66.0403,54.3898C66.0403,51.523,66.0403,11.2962,66.0403,8.4294C66.0409,6.5397,64.5067,5.8618,63.4601,5.6189Z"/>
</svg>