<svg version="1.2" baseProfile="tiny" viewBox="0 0 163.383 296.516" xmlns:xlink="http://www.w3.org/1999/xlink" xmlns="http://www.w3.org/2000/svg">
<path style="fill:#ffffff;" d="M161.8913,92.9844L161.8733,89.8799L159.0877,85.109L135.4478,85.109L135.4478,49.3254L137.8103,49.3254L137.8103,47.9288L140.0241,47.9288L140.0241,44.2817L137.8103,44.2817L137.8103,42.9681L135.4478,42.9681L135.4478,12.0919C135.4478,11.0304,135.3514,10.0726,135.1782,9.2098C135.0556,8.593,134.8939,8.0237,134.7011,7.5019C134.5018,6.9592,134.2698,6.467,134.0133,6.0193C133.8205,5.6783,133.6146,5.3669,133.3973,5.0764C132.7487,4.2016,132.0069,3.5374,131.2766,3.0334C130.9253,2.7902,130.579,2.5856,130.2457,2.4107C129.7947,2.1764,129.3667,1.9985,128.9925,1.8681C128.1462,1.5656,127.5645,1.4915,127.5645,1.4915L95.4026,1.4915L95.4026,1.4915L74.8572,1.4915L74.8572,23.1164L74.8572,23.1164L95.2637,23.1164L95.2637,42.9681L92.8277,44.2817L92.8277,44.2817L90.8246,44.2817L90.8246,47.9288L92.8277,47.9288L92.8277,49.3254L95.2637,49.3254L95.2637,65.6605L71.9261,60.8065L68.8937,60.8065L35.0963,60.8065L35.0963,60.8065L0.0,60.8065L0.0,82.4196L0.0,82.4196L35.0963,82.4196L68.8953,92.9844L68.8953,149.622L100.4168,295.1046L96.1885,295.1046L96.1885,296.516L134.6619,296.516L134.6619,295.1046L130.4499,295.1046L161.8897,149.622L161.8897,92.9844Z"/>
</svg>