<svg version="1.2" baseProfile="tiny" id="EdgeSVG_vgUR0" x="0px" y="0px" width="66.791px" height="70.403px" viewBox="0 0 66.791 70.403" xmlns:xlink="http://www.w3.org/1999/xlink" xmlns="http://www.w3.org/2000/svg">
  <linearGradient id="SVGID_1_" gradientUnits="userSpaceOnUse" x1="0" y1="35.2017" x2="66.7905" y2="35.2017">
    <stop offset="0" style="stop-color:#231F20;stop-opacity:0.5"/>
    <stop offset="1" style="stop-color:#231F20;stop-opacity:0.5"/>
  </linearGradient>
  <path fill="url(#SVGID_1_)" d="M10.533,70.403c-0.999,0-1.811-0.813-1.811-1.811V68.34H5.887V53.287h2.835v-0.251&#xD;&#xA;&#x9;&#x9;c0-0.999,0.812-1.811,1.811-1.811h2.02V48.66H7.586l-0.75-0.28l-4.744-2.028c-0.778-0.166-2.095-0.879-2.091-2.569l0-0.114&#xD;&#xA;&#x9;&#x9;c0.028-11.286,0.042-23.674,0-24.599c-0.067-1.468,1.27-2.319,2.07-2.59l4.764-2.038l0.75-0.28h38.907V7.958&#xD;&#xA;&#x9;&#x9;c0-2.146,1.663-7.232,4.286-7.232h8.19c0.343,0,0.659,0.012,0.949,0.037V0h3.371v3.849h0.921v1.206&#xD;&#xA;&#x9;&#x9;c1.648,0.566,2.58,1.771,2.58,3.375v45.961c0,1.604-0.932,2.81-2.58,3.375v1.5H63.29v3.418h-3.371v-0.646&#xD;&#xA;&#x9;&#x9;c-0.3,0.037-0.617,0.056-0.949,0.056h-8.19c-2.011,0-3.457-2.989-4.023-5.351v11.85c0,0.998-0.812,1.811-1.811,1.811H10.533z&#xD;&#xA;&#x9;&#x9; M44.945,51.226c0.655,0,1.23,0.35,1.548,0.872V48.66h-2.565v2.566H44.945z"/>
</svg>