<svg version="1.2" baseProfile="tiny" viewBox="0 0 97.408 239.623" xmlns:xlink="http://www.w3.org/1999/xlink" xmlns="http://www.w3.org/2000/svg">
<path style="fill:#ffffff;" d="M96.4076,28.5271L96.4076,27.2835C96.4076,27.063,96.2683,26.8833,96.0979,26.8833L95.2826,26.8833C95.3683,26.8833,95.4384,26.7946,95.4384,26.6844L95.4384,24.8633C95.4384,24.7531,95.3683,24.662,95.2826,24.662L91.283,24.662L90.1258,24.662L89.5637,24.662C89.5598,20.3344,89.4186,12.2256,84.1644,9.5993C79.5141,7.275,72.9683,6.5992,69.9662,6.5992C67.794,6.5992,57.6334,6.5992,52.1834,6.5992C52.2682,6.5992,52.3383,6.5106,52.3383,6.4003L52.3383,5.1783C52.3383,5.068,52.2682,4.9794,52.1834,4.9794L49.8544,4.9794L49.8544,3.5991L54.3537,3.5991C54.7939,3.5991,55.1544,3.2397,55.1544,2.8012L55.1544,2.1997C55.1544,1.7588,54.7939,1.3994,54.3537,1.3994C54.3537,1.3994,54.3537,0.9992,48.704,0.9992C43.0543,0.9992,43.0543,1.3994,43.0543,1.3994C42.6141,1.3994,42.2536,1.7588,42.2536,2.1997L42.2536,2.8012C42.2536,3.2397,42.6141,3.5991,43.0543,3.5991L47.5536,3.5991L47.5536,4.9794L45.2246,4.9794C45.1398,4.9794,45.0697,5.068,45.0697,5.1783L45.0697,6.4003C45.0697,6.5106,45.1398,6.5992,45.2246,6.5992C39.7736,6.5992,29.614,6.5992,27.4418,6.5992C24.4397,6.5992,17.8919,7.275,13.2436,9.5993C7.9904,12.228,7.8491,20.3344,7.8452,24.6644L7.2832,24.6644L7.2832,24.6644L6.125,24.6644L6.125,24.6644L2.1254,24.6644C2.0397,24.6644,1.9696,24.7531,1.9696,24.8633L1.9696,26.6844C1.9696,26.7946,2.0397,26.8857,2.1254,26.8857L1.3111,26.8857L1.3111,26.8857C1.1397,26.8857,1.0004,27.0654,1.0004,27.2859L1.0004,28.5271C1.0004,29.107,1.1397,28.9273,1.3111,28.9273C1.1397,28.9273,1.0004,29.107,1.0004,29.3275L1.0004,30.5687C1.0004,30.7892,1.1397,30.9689,1.3111,30.9689L2.1264,30.9689C2.0407,30.9689,1.9706,31.0599,1.9706,31.1702L1.9706,32.9889C1.9706,33.0991,2.0407,33.1902,2.1264,33.1902L6.126,33.1902L7.2832,33.1902L8.2826,33.1902C10.2824,36.2502,18.7579,38.0354,26.5437,38.0354C27.1233,38.0354,27.7213,38.0354,28.3321,38.0354C27.8421,38.0401,27.4418,38.4379,27.4418,38.9292L27.4418,43.4077C27.4418,43.8989,27.8441,44.3015,28.337,44.3015L29.9695,44.3015C29.9695,44.3015,32.0706,44.8718,32.0706,47.1051L32.13,47.1051L32.13,103.2464C30.027,104.8375,28.6594,107.3535,28.6594,110.1882L28.6594,155.1751C28.6594,159.9771,32.5674,163.883,37.3686,163.883L37.3901,163.883L37.3901,174.6852L37.3501,174.6852C37.3501,175.67,36.3634,176.039,36.0312,176.1349C36.0838,176.1037,36.1267,176.0486,36.1267,175.9672L36.1267,174.146C36.1267,174.0382,36.0565,173.9471,35.9718,173.9471L30.815,173.9471C30.7303,173.9471,30.6601,174.0382,30.6601,174.146L30.6601,175.9672C30.6601,176.0774,30.7303,176.1684,30.815,176.1684L30.5033,176.1684C30.063,176.1684,29.7026,176.5279,29.7026,176.9688L29.7026,180.9681C29.7026,181.409,30.063,181.7684,30.5033,181.7684L66.9018,181.7684C67.342,181.7684,67.7025,181.409,67.7025,180.9681L67.7025,176.9688C67.7025,176.5279,67.343,176.1684,66.9018,176.1684L67.0138,176.1684C67.0985,176.1684,67.1687,176.0774,67.1687,175.9672L67.1687,174.146C67.1687,174.0382,67.0985,173.9471,67.0138,173.9471L61.856,173.9471C61.7713,173.9471,61.7011,174.0382,61.7011,174.146L61.7011,175.9672C61.7011,176.0774,61.7713,176.1684,61.856,176.1684L61.4898,176.1684C61.4898,176.1684,60.0579,175.8665,60.0579,174.6852L60.0579,163.883L60.0374,163.883C64.8396,163.883,68.7476,159.9771,68.7476,155.1751L68.7476,145.2858L81.5081,145.2858C82.0584,145.2858,82.5085,144.8377,82.5085,144.2866L82.5085,124.0864L84.2384,124.0864C85.7132,124.0864,86.8685,122.3731,86.8685,120.1853L86.8685,44.1673C86.8685,42.0179,85.118,40.2663,82.9682,40.2663L69.9672,40.2663L69.9672,40.2663L69.9672,42.0658L82.9702,42.0658L82.9702,42.0658C84.1284,42.0658,85.0703,43.0099,85.0703,44.1673L85.0703,120.1829C85.0703,121.4913,84.4927,122.2844,84.2394,122.2844L82.5094,122.2844L82.5094,119.0998C82.5094,118.5511,82.0594,118.1006,81.5091,118.1006L68.7486,118.1006L68.7486,110.1858C68.7486,107.3775,67.4083,104.883,65.3403,103.2895L65.3403,47.1027C65.3403,44.8718,67.4385,44.2991,67.4385,44.2991L69.071,44.2991C69.5639,44.2991,69.9662,43.8965,69.9662,43.4053L69.9662,38.9292C69.9662,38.4379,69.5659,38.0378,69.0759,38.033C69.6867,38.033,70.2847,38.033,70.8643,38.033C78.6511,38.033,87.1256,36.2478,89.1254,33.1878L90.1258,33.1878L91.283,33.1878L95.2826,33.1878C95.3683,33.1878,95.4384,33.0991,95.4384,32.9889L95.4384,31.1678C95.4384,31.0575,95.3683,30.9665,95.2826,30.9665L96.0979,30.9665C96.2683,30.9665,96.4076,30.7868,96.4076,30.5663L96.4076,29.3251C96.4076,29.1046,96.2683,28.9249,96.0979,28.9249C96.2693,28.9249,96.4076,28.7452,96.4076,28.5271M37.3696,158.0745C35.7692,158.0745,34.4668,156.771,34.4668,155.1703L34.4668,110.1858C34.4668,108.6427,35.6776,107.3918,37.1962,107.2984L41.7461,107.2984C41.5757,107.2984,41.4364,107.4781,41.4364,107.6986L41.4364,110.1403C41.4364,110.3608,41.5757,110.5405,41.7461,110.5405L42.5381,110.5405C42.5381,110.5405,43.2297,110.7274,43.2297,111.463L43.2492,111.463L43.2492,118.0982L37.3092,118.0982C36.7589,118.0982,36.3088,118.5487,36.3088,119.0974L36.3088,144.2818C36.3088,144.8329,36.7589,145.281,37.3092,145.281L46.2542,145.281L46.2542,151.1973L41.6741,151.1973L41.6741,153.9099L41.6487,153.9099C41.6487,154.6431,40.7584,154.83,40.7584,154.83L39.7366,154.83C39.5175,154.83,39.3372,155.0121,39.3372,155.2302L39.3372,157.6719C39.3372,157.8924,39.5175,158.0721,39.7366,158.0721L37.3696,158.0721L37.3696,158.0721M62.9421,155.1703C62.9421,156.771,61.6388,158.0745,60.0384,158.0745L57.6714,158.0745C57.8905,158.0745,58.0708,157.8948,58.0708,157.6743L58.0708,155.235C58.0708,155.0145,57.8905,154.8348,57.6714,154.8348L56.6496,154.8348L56.6496,154.8348C56.6496,154.8348,55.7602,154.6455,55.7602,153.9123L55.7602,151.1997L51.1538,151.1997L51.1538,145.2834L62.9421,145.2834L62.9421,155.1703M62.4687,118.1006L62.4687,115.6996C62.3372,115.7643,62.2028,115.8266,62.0694,115.8817C61.9943,115.9128,61.9154,115.9368,61.8395,115.9655C62.0528,115.8841,62.2651,115.8002,62.4687,115.6996C62.6343,115.6181,62.7843,115.5175,62.9421,115.4264L62.9421,118.1006L62.4687,118.1006L62.4687,118.1006M59.0029,116.4999C59.2971,116.4999,59.5864,116.4807,59.8708,116.4496C59.5864,116.4807,59.2971,116.4999,59.0029,116.4999M60.1397,116.4089C60.3326,116.3801,60.5254,116.3489,60.7134,116.3082C60.5254,116.3513,60.3326,116.3801,60.1397,116.4089M61.0212,116.2291C61.1888,116.186,61.3563,116.1381,61.52,116.083C61.3563,116.1381,61.1898,116.186,61.0212,116.2291Z"/>
</svg>