<svg version="1.2" baseProfile="tiny" viewBox="0 0 97.408 239.623" xmlns:xlink="http://www.w3.org/1999/xlink" xmlns="http://www.w3.org/2000/svg">
<path style="fill:#ffffff;" d="M78.7037,191.9668L78.7037,228.3655C78.7037,228.8064,78.3443,229.1658,77.904,229.1658L73.9044,229.1658C73.4641,229.1658,73.1037,228.8064,73.1037,228.3655L73.1037,191.9668C73.1037,191.5259,73.4641,191.1664,73.9044,191.1664L77.904,191.1664C78.3443,191.1664,78.7037,191.5259,78.7037,191.9668M71.0367,199.1651C67.9469,199.1651,67.1307,196.3687,62.4668,194.2791C60.8069,193.0427,61.1732,189.1656,61.1732,189.1656L61.2053,189.1656C61.2053,187.9004,62.947,187.366,62.947,187.366L66.9027,187.366C67.343,187.366,67.7034,187.0066,67.7034,186.5657L67.7034,182.5664C67.7034,182.1255,67.344,181.766,66.9027,181.766L30.5043,181.766L30.5043,181.766C30.064,181.766,29.7036,182.1255,29.7036,182.5664L29.7036,182.5664C29.7036,187.0066,30.064,187.366,30.5043,187.366L34.4201,187.366C34.4201,187.366,36.1598,187.9004,36.1598,187.366C36.1598,189.1656,36.5562,193.3254,34.6704,194.4014C34.5915,194.4469,34.5097,194.4876,34.422,194.4014C36.6459,195.4581,36.6449,195.4581,34.4211,194.5211L34.4191,194.5211C30.2091,196.5795,29.3412,199.1651,26.3693,199.1651C25.44,199.1651,24.313,197.5764,24.3052,195.8535L24.3052,191.9668C24.3052,191.5259,23.9448,191.1664,23.5045,191.1664L19.505,191.1664C19.0647,191.1664,18.7053,191.5259,18.7053,191.9668L18.7053,228.3679C18.7053,228.8064,19.0647,229.1658,19.505,229.1658L23.5045,229.1658C23.9448,229.1658,24.3052,228.8064,24.3052,228.3679L24.3052,224.4788C24.313,222.7559,25.441,221.1672,26.3693,221.1672C29.3627,221.1672,30.2208,223.7959,34.5194,225.8615C34.5126,225.8638,34.5087,225.8638,34.5029,225.8662C34.6607,225.9285,34.8068,226.01,34.9393,226.1107C36.5991,227.3471,36.2329,231.2218,36.2329,231.2218L36.2007,231.2218C36.2007,232.4894,34.4591,233.0238,34.4591,233.0238L62.9869,233.0238C62.9869,233.0238,61.2472,232.4894,61.2472,231.2218C61.2472,231.2218,60.8508,227.062,62.7366,225.9861C62.8145,225.9405,62.8973,225.9022,62.985,225.8662C62.9645,225.8591,62.945,225.8519,62.9246,225.8423C67.1891,223.7791,68.0512,221.1672,71.0367,221.1672C71.9689,221.1672,73.1028,222.7679,73.1028,224.498L73.1028,195.8343C73.1028,197.5668,71.9689,199.1651,71.0367,199.1651M66.9027,233.0214L30.5043,233.0214L30.5043,233.0214C30.064,233.0214,29.7036,233.3808,29.7036,233.8217L29.7036,237.821C29.7036,238.2619,30.064,238.6214,30.5043,238.6214L66.9027,238.6214C67.343,238.6214,67.7034,238.2619,67.7034,237.821L67.7034,233.8217C67.7034,233.3832,67.343,233.0214,66.9027,233.0214Z"/>
</svg>