<svg version="1.2" baseProfile="tiny" id="EdgeSVG_PpTll" x="0px" y="0px" width="97.408px" height="239.623px" viewBox="0 0 97.408 239.623" xmlns:xlink="http://www.w3.org/1999/xlink" xmlns="http://www.w3.org/2000/svg">
  <linearGradient id="SVGID_1_" gradientUnits="userSpaceOnUse" x1="0" y1="119.8115" x2="97.4082" y2="119.8115">
    <stop offset="0" style="stop-color:#000000;stop-opacity:0.5"/>
    <stop offset="1" style="stop-color:#000000;stop-opacity:0.5"/>
  </linearGradient>
  <path fill="url(#SVGID_1_)" d="M97.408,27.284c0-0.646-0.412-1.191-0.97-1.352v-1.069c0-0.662-0.518-1.2-1.155-1.2H90.56&#xD;&#xA;&#x9;&#x9;c-0.037-4.27-0.471-12.22-5.949-14.958C79.697,6.249,72.883,5.6,69.966,5.6H53.338V5.179c0-0.21-0.052-0.407-0.144-0.579h1.16&#xD;&#xA;&#x9;&#x9;c0.992,0,1.8-0.808,1.8-1.8V2.2c0-0.867-0.616-1.593-1.434-1.763C53.954,0.125,52.285,0,48.704,0s-5.249,0.125-6.016,0.438&#xD;&#xA;&#x9;&#x9;c-0.817,0.169-1.434,0.896-1.434,1.763v0.6c0,0.993,0.808,1.8,1.8,1.8h1.16c-0.091,0.172-0.144,0.369-0.144,0.579V5.6H27.442&#xD;&#xA;&#x9;&#x9;c-2.917,0-9.732,0.649-14.646,3.105C7.32,11.444,6.886,19.394,6.849,23.664H2.125c-0.637,0-1.155,0.538-1.155,1.2v1.069&#xD;&#xA;&#x9;&#x9;C0.412,26.093,0,26.638,0,27.284v1.242c0,0.139,0.019,0.273,0.055,0.4C0.019,29.053,0,29.188,0,29.326v1.242&#xD;&#xA;&#x9;&#x9;c0,0.646,0.412,1.191,0.97,1.352v1.069c0,0.662,0.518,1.2,1.155,1.2h5.66c2.804,3.31,11.466,4.832,18.657,4.846v4.371&#xD;&#xA;&#x9;&#x9;c0,1.045,0.85,1.895,1.895,1.895h1.471c0.339,0.13,1.263,0.594,1.263,1.802l0.059,1v54.661c-2.212,1.855-3.471,4.533-3.471,7.423&#xD;&#xA;&#x9;&#x9;v44.986c0,5.018,3.826,9.159,8.732,9.66v8.196c-0.13-0.053-0.271-0.082-0.418-0.082h-5.157c-0.637,0-1.155,0.539-1.155,1.2v1.23&#xD;&#xA;&#x9;&#x9;c-0.569,0.303-0.957,0.902-0.957,1.59v4c0,0.289,0.075,0.558,0.196,0.8c-0.121,0.242-0.196,0.512-0.196,0.8v4&#xD;&#xA;&#x9;&#x9;c0,0.993,0.808,1.8,1.8,1.8h3.744c0.373,0.149,0.913,0.486,0.917,0.895c0.103,1.083,0.005,3.62-0.955,4.25l-0.201,0.098&#xD;&#xA;&#x9;&#x9;l-1.851,1.044c-0.976,0.632-1.74,1.264-2.4,1.81c-1.285,1.062-2.06,1.703-3.365,1.705c-0.311-0.071-1.082-1.073-1.088-2.315v-3.886&#xD;&#xA;&#x9;&#x9;c0-0.992-0.808-1.8-1.8-1.8h-4c-0.992,0-1.8,0.808-1.8,1.8v36.4c0,0.993,0.808,1.8,1.8,1.8h4c0.993,0,1.8-0.808,1.8-1.8v-3.882&#xD;&#xA;&#x9;&#x9;c0.006-1.247,0.777-2.249,1.064-2.318c1.327,0,2.102,0.641,3.386,1.702c0.629,0.521,1.352,1.118,2.261,1.719l2.125,1.211&#xD;&#xA;&#x9;&#x9;c0.07,0.027,0.135,0.063,0.201,0.114c0.703,0.523,0.915,2.115,0.928,3.31h-0.068v1c0,0.327-0.547,0.654-0.917,0.8h-3.78&#xD;&#xA;&#x9;&#x9;c-0.993,0-1.8,0.808-1.8,1.8v4c0,0.992,0.808,1.8,1.8,1.8h36.399c0.992,0,1.8-0.808,1.8-1.8v-4c0-0.993-0.808-1.8-1.8-1.8h-3.743&#xD;&#xA;&#x9;&#x9;c-0.342-0.137-0.914-0.479-0.918-0.895c-0.105-1.102-0.001-3.708,1.001-4.279c0.031-0.018,0.063-0.034,0.097-0.047l1.867-1.095&#xD;&#xA;&#x9;&#x9;c0.996-0.641,1.771-1.283,2.441-1.836c1.285-1.062,2.06-1.703,3.364-1.705c0.314,0.072,1.089,1.08,1.089,2.334h0.001v3.868&#xD;&#xA;&#x9;&#x9;c0,0.993,0.808,1.8,1.8,1.8h4c0.992,0,1.8-0.808,1.8-1.8v-36.4c0-0.992-0.808-1.8-1.8-1.8h-4c-0.993,0-1.8,0.808-1.8,1.8v3.868&#xD;&#xA;&#x9;&#x9;h-0.001c0,1.254-0.775,2.262-1.066,2.332c-1.328,0-2.103-0.641-3.387-1.703c-1.108-0.917-2.483-2.053-4.655-3.044&#xD;&#xA;&#x9;&#x9;c-0.647-0.574-0.845-2.099-0.857-3.253h0.068v-1c0-0.325,0.543-0.653,0.914-0.8h3.785c0.992,0,1.8-0.808,1.8-1.8v-4&#xD;&#xA;&#x9;&#x9;c0-0.289-0.075-0.558-0.196-0.8c0.122-0.242,0.196-0.511,0.196-0.8v-4c0-0.499-0.204-0.951-0.533-1.277v-1.543&#xD;&#xA;&#x9;&#x9;c0-0.662-0.518-1.2-1.155-1.2h-5.158c-0.31,0-0.591,0.127-0.798,0.334v-8.451c4.876-0.512,8.69-4.647,8.69-9.657v-8.887h11.76&#xD;&#xA;&#x9;&#x9;c1.103,0,2-0.897,2-2v-19.201h0.73c2.036,0,3.63-2.152,3.63-4.9V44.167c0-2.702-2.198-4.9-4.9-4.9H70.966v-0.232&#xD;&#xA;&#x9;&#x9;c7.191-0.014,15.853-1.536,18.657-4.846h5.66c0.637,0,1.155-0.538,1.155-1.2V31.92c0.558-0.161,0.97-0.706,0.97-1.352v-1.242&#xD;&#xA;&#x9;&#x9;c0-0.139-0.019-0.273-0.055-0.4c0.036-0.127,0.055-0.261,0.055-0.4V27.284z M35.467,110.186c0-0.989,0.772-1.812,1.763-1.886h3.207&#xD;&#xA;&#x9;&#x9;v1.842c0,0.772,0.588,1.4,1.31,1.4h0.485l0.018,0.922v4.636h-4.94c-0.827,0-1.538,0.504-1.842,1.222V110.186z M35.467,155.171&#xD;&#xA;&#x9;&#x9;v-10.109c0.304,0.717,1.016,1.222,1.842,1.222h7.945v3.916h-4.58v2.711h-0.025v0.903c-0.013,0.007-0.027,0.014-0.041,0.02h-0.871&#xD;&#xA;&#x9;&#x9;c-0.772,0-1.4,0.628-1.4,1.4v1.842H37.37C36.321,157.075,35.467,156.221,35.467,155.171z M61.942,155.171&#xD;&#xA;&#x9;&#x9;c0,1.05-0.854,1.904-1.904,1.904h-0.967v-1.842c0-0.772-0.628-1.4-1.4-1.4h-0.869c-0.015-0.006-0.029-0.013-0.042-0.02V150.2&#xD;&#xA;&#x9;&#x9;h-4.606v-3.916h9.788V155.171z M82.97,43.066c0.606,0,1.1,0.494,1.1,1.1v76.017c0,0.53-0.121,0.899-0.218,1.1h-0.343V119.1&#xD;&#xA;&#x9;&#x9;c0-1.103-0.897-2-2-2h-11.76v-6.915c0-2.858-1.236-5.518-3.409-7.372V47.102c0-1.213,0.931-1.676,1.259-1.802h1.473&#xD;&#xA;&#x9;&#x9;c1.045,0,1.895-0.85,1.895-1.895v-0.338H82.97z"/>
</svg>